STARTFONT 2.1
FONT -Monotype-Century Schoolbook-Bold-I-Normal--19-140-100-100-P-107-iso8859-2
SIZE 14 100 100
FONTBOUNDINGBOX 25 22 -4 -4

STARTPROPERTIES 24
FOUNDRY "Monotype"
FAMILY_NAME "Century Schoolbook"
WEIGHT_NAME "Bold"
SLANT "I"
SETWIDTH_NAME "Normal"
ADD_STYLE_NAME ""
PIXEL_SIZE 19
POINT_SIZE 140
RESOLUTION_X 100
RESOLUTION_Y 100
SPACING "P"
AVERAGE_WIDTH 107
CHARSET_REGISTRY "iso8859"
CHARSET_ENCODING "2"
FACE_NAME "Century Schoolbook Bold Italic ISO Latin2"
_DEC_DEVICE_FONTNAMES "PS=centuryschoolbook-bit-lat2"
COPYRIGHT "Copyright (c) 1994 Monotype Typography Ltd."
CAP_HEIGHT 16
X_HEIGHT 11
WEIGHT 10
QUAD_WIDTH 12
DEFAULT_CHAR 160
FONT_DESCENT 4
FONT_ASCENT 19
ENDPROPERTIES

CHARS 191

STARTCHAR space
ENCODING 32
SWIDTH 287 0
DWIDTH 5 0
BBX 0 0 0 0
BITMAP
ENDCHAR

STARTCHAR exclam
ENCODING 33
SWIDTH 333 0
DWIDTH 6 0
BBX 6 14 0 0
BITMAP
0C
1C
1C
1C
18
38
38
30
30
30
00
E0
E0
E0
ENDCHAR

STARTCHAR quotedbl
ENCODING 34
SWIDTH 400 0
DWIDTH 8 0
BBX 7 6 2 8
BITMAP
66
EE
EE
CC
CC
88
ENDCHAR

STARTCHAR numbersign
ENCODING 35
SWIDTH 606 0
DWIDTH 12 0
BBX 13 14 0 0
BITMAP
0C60
0C60
0C60
0C60
7FF8
7FF8
18C0
18C0
FFF0
FFF0
3180
3180
3180
3180
ENDCHAR

STARTCHAR dollar
ENCODING 36
SWIDTH 574 0
DWIDTH 11 0
BBX 9 18 2 -2
BITMAP
0200
0200
0F00
1D80
3980
3900
3800
3C00
1E00
1E00
0F00
4700
E700
E700
C600
7C00
1000
1000
ENDCHAR

STARTCHAR percent
ENCODING 37
SWIDTH 889 0
DWIDTH 17 0
BBX 13 14 3 0
BITMAP
3810
6C20
6C40
CC40
D880
D900
7200
0270
04D8
08D8
1198
11B0
21B0
40E0
ENDCHAR

STARTCHAR ampersand
ENCODING 38
SWIDTH 889 0
DWIDTH 17 0
BBX 15 14 1 0
BITMAP
03E0
0730
0730
0E70
0E60
0F80
3F1E
770C
E708
E390
E3A0
E1C2
71E4
3EF8
ENDCHAR

STARTCHAR quoteright
ENCODING 39
SWIDTH 259 0
DWIDTH 5 0
BBX 4 6 1 8
BITMAP
60
70
70
30
20
C0
ENDCHAR

STARTCHAR parenleft
ENCODING 40
SWIDTH 407 0
DWIDTH 8 0
BBX 8 18 1 -4
BITMAP
01
06
0C
18
38
30
70
60
E0
E0
E0
E0
E0
60
60
20
30
10
ENDCHAR

STARTCHAR parenright
ENCODING 41
SWIDTH 407 0
DWIDTH 8 0
BBX 8 18 -1 -4
BITMAP
08
0C
04
06
06
07
07
07
07
07
06
0E
0C
1C
18
30
60
80
ENDCHAR

STARTCHAR asterisk
ENCODING 42
SWIDTH 500 0
DWIDTH 10 0
BBX 8 9 2 5
BITMAP
18
18
18
DB
FF
18
3C
66
66
ENDCHAR

STARTCHAR plus
ENCODING 43
SWIDTH 606 0
DWIDTH 12 0
BBX 10 10 2 1
BITMAP
0C00
0C00
0C00
0C00
FFC0
FFC0
0C00
0C00
0C00
0C00
ENDCHAR

STARTCHAR comma
ENCODING 44
SWIDTH 287 0
DWIDTH 5 0
BBX 4 6 0 -3
BITMAP
60
70
70
30
20
C0
ENDCHAR

STARTCHAR minus
ENCODING 45
SWIDTH 606 0
DWIDTH 12 0
BBX 11 2 1 5
BITMAP
FFE0
FFE0
ENDCHAR

STARTCHAR period
ENCODING 46
SWIDTH 287 0
DWIDTH 5 0
BBX 3 3 1 0
BITMAP
E0
E0
E0
ENDCHAR

STARTCHAR slash
ENCODING 47
SWIDTH 278 0
DWIDTH 5 0
BBX 11 14 -2 0
BITMAP
0060
00C0
0180
0180
0300
0600
0600
0C00
1800
1800
3000
6000
6000
C000
ENDCHAR

STARTCHAR zero
ENCODING 48
SWIDTH 574 0
DWIDTH 11 0
BBX 9 14 2 0
BITMAP
0F00
1B80
3B80
7380
7380
7380
E380
E380
E700
E700
E700
EE00
EC00
7800
ENDCHAR

STARTCHAR one
ENCODING 49
SWIDTH 574 0
DWIDTH 11 0
BBX 8 14 2 0
BITMAP
03
1F
07
07
0E
0E
0E
1C
1C
1C
38
38
38
FE
ENDCHAR

STARTCHAR two
ENCODING 50
SWIDTH 574 0
DWIDTH 11 0
BBX 11 14 0 0
BITMAP
0780
09C0
10E0
1CE0
1CE0
08E0
01C0
0380
0700
0C00
1040
2080
7F80
FF00
ENDCHAR

STARTCHAR three
ENCODING 51
SWIDTH 574 0
DWIDTH 11 0
BBX 10 14 1 0
BITMAP
0F00
1B80
19C0
09C0
01C0
0380
1E00
0700
0380
4380
E380
E380
4700
3C00
ENDCHAR

STARTCHAR four
ENCODING 52
SWIDTH 574 0
DWIDTH 11 0
BBX 10 14 1 0
BITMAP
0040
00C0
01C0
03C0
05C0
09C0
1180
1380
2380
4380
FFC0
0700
0700
1FC0
ENDCHAR

STARTCHAR five
ENCODING 53
SWIDTH 574 0
DWIDTH 11 0
BBX 10 14 1 0
BITMAP
1FC0
1F80
1000
1000
3000
3E00
6700
0380
0380
4380
E380
E300
C600
7800
ENDCHAR

STARTCHAR six
ENCODING 54
SWIDTH 574 0
DWIDTH 11 0
BBX 10 14 2 0
BITMAP
0F80
18C0
31C0
7080
6000
E000
EE00
F700
E700
E700
E700
6700
6E00
3800
ENDCHAR

STARTCHAR seven
ENCODING 55
SWIDTH 574 0
DWIDTH 11 0
BBX 9 14 2 0
BITMAP
7F80
7F00
C300
8600
0600
0C00
1C00
1800
3800
3000
7000
7000
E000
E000
ENDCHAR

STARTCHAR eight
ENCODING 56
SWIDTH 574 0
DWIDTH 11 0
BBX 10 14 1 0
BITMAP
0F00
1980
39C0
39C0
39C0
1D80
1F00
3600
6700
E700
E700
E700
6600
3C00
ENDCHAR

STARTCHAR nine
ENCODING 57
SWIDTH 574 0
DWIDTH 11 0
BBX 10 14 1 0
BITMAP
0700
1D80
1980
39C0
39C0
39C0
3BC0
1DC0
01C0
0180
4380
E300
C600
7C00
ENDCHAR

STARTCHAR colon
ENCODING 58
SWIDTH 287 0
DWIDTH 5 0
BBX 5 9 0 0
BITMAP
38
38
38
00
00
00
E0
E0
E0
ENDCHAR

STARTCHAR semicolon
ENCODING 59
SWIDTH 287 0
DWIDTH 5 0
BBX 6 12 -1 -3
BITMAP
1C
1C
1C
00
00
00
60
70
70
30
20
C0
ENDCHAR

STARTCHAR less
ENCODING 60
SWIDTH 606 0
DWIDTH 12 0
BBX 11 10 1 1
BITMAP
0060
01E0
0F80
3E00
F000
F000
3E00
0F80
01E0
0060
ENDCHAR

STARTCHAR equal
ENCODING 61
SWIDTH 606 0
DWIDTH 12 0
BBX 11 6 1 3
BITMAP
FFE0
FFE0
0000
0000
FFE0
FFE0
ENDCHAR

STARTCHAR greater
ENCODING 62
SWIDTH 606 0
DWIDTH 12 0
BBX 11 10 2 1
BITMAP
C000
F000
3E00
0F80
01E0
01E0
0F80
3E00
F000
C000
ENDCHAR

STARTCHAR question
ENCODING 63
SWIDTH 481 0
DWIDTH 9 0
BBX 8 14 1 0
BITMAP
1E
27
27
07
1F
3E
78
70
74
38
00
E0
E0
E0
ENDCHAR

STARTCHAR at
ENCODING 64
SWIDTH 747 0
DWIDTH 14 0
BBX 14 15 0 -1
BITMAP
07C0
1830
2008
4368
46E4
8CC4
8CC4
99C4
9B88
9DB4
48C4
4008
2008
1830
07C0
ENDCHAR

STARTCHAR A
ENCODING 65
SWIDTH 741 0
DWIDTH 14 0
BBX 14 14 -1 0
BITMAP
0030
0070
0070
00F0
0170
0170
0270
0470
0470
0FF0
1070
1070
2070
F9FC
ENDCHAR

STARTCHAR B
ENCODING 66
SWIDTH 759 0
DWIDTH 14 0
BBX 15 14 -1 0
BITMAP
1FFC
071E
070E
070E
0E0E
0E1C
0FE0
1C38
1C1C
1C1C
381C
383C
3878
FFE0
ENDCHAR

STARTCHAR C
ENCODING 67
SWIDTH 759 0
DWIDTH 14 0
BBX 13 14 2 0
BITMAP
07C8
1C68
3838
7010
7010
E010
E000
E000
E000
E000
E010
7020
78C0
1F00
ENDCHAR

STARTCHAR D
ENCODING 68
SWIDTH 833 0
DWIDTH 16 0
BBX 15 14 1 0
BITMAP
1FF0
0E1C
0E0C
0E0E
1C0E
1C0E
1C0E
380E
381C
381C
7018
7030
70E0
FF80
ENDCHAR

STARTCHAR E
ENCODING 69
SWIDTH 741 0
DWIDTH 14 0
BBX 15 14 0 0
BITMAP
1FFE
0706
0706
0704
0E24
0E60
0FE0
1C40
1C40
1C48
3808
3818
3830
FFF0
ENDCHAR

STARTCHAR F
ENCODING 70
SWIDTH 704 0
DWIDTH 13 0
BBX 15 14 0 0
BITMAP
1FFE
0706
0706
0704
0E24
0E60
0FE0
1C40
1C40
1C40
3800
3800
3800
FE00
ENDCHAR

STARTCHAR G
ENCODING 71
SWIDTH 815 0
DWIDTH 15 0
BBX 14 14 1 0
BITMAP
07C8
1C68
3838
7010
7010
E010
E000
E1FC
E070
E070
E070
70E0
78A0
1F20
ENDCHAR

STARTCHAR H
ENCODING 72
SWIDTH 870 0
DWIDTH 17 0
BBX 18 14 0 0
BITMAP
1FDFC0
070700
070700
070700
0E0E00
0E0E00
0FFE00
1C1C00
1C1C00
1C1C00
383800
383800
383800
FEFE00
ENDCHAR

STARTCHAR I
ENCODING 73
SWIDTH 444 0
DWIDTH 9 0
BBX 10 14 0 0
BITMAP
1FC0
0700
0700
0700
0E00
0E00
0E00
1C00
1C00
1C00
3800
3800
3800
FE00
ENDCHAR

STARTCHAR J
ENCODING 74
SWIDTH 667 0
DWIDTH 13 0
BBX 14 14 0 0
BITMAP
01FC
0070
0070
0070
00E0
00E0
00E0
01C0
61C0
F1C0
E380
8380
4700
3E00
ENDCHAR

STARTCHAR K
ENCODING 75
SWIDTH 778 0
DWIDTH 16 0
BBX 17 14 0 0
BITMAP
1FCF80
070600
070400
070800
0E1000
0E6000
0EE000
1F6000
1C7000
1C7000
383800
383800
381C00
FE7F00
ENDCHAR

STARTCHAR L
ENCODING 76
SWIDTH 704 0
DWIDTH 13 0
BBX 13 14 0 0
BITMAP
1FC0
0700
0700
0700
0E00
0E00
0E00
1C00
1C00
1C08
3808
3818
3830
FFF0
ENDCHAR

STARTCHAR M
ENCODING 77
SWIDTH 944 0
DWIDTH 18 0
BBX 20 14 0 0
BITMAP
1F03F0
0703C0
0705C0
0705C0
0B0B80
0B1380
0B1380
132700
132700
134700
234E00
238E00
238E00
FB3F80
ENDCHAR

STARTCHAR N
ENCODING 78
SWIDTH 852 0
DWIDTH 16 0
BBX 17 14 0 0
BITMAP
1F0F80
070200
078200
078200
09C400
09C400
08E400
10E800
107800
107800
203800
203000
201000
F81000
ENDCHAR

STARTCHAR O
ENCODING 79
SWIDTH 833 0
DWIDTH 16 0
BBX 14 14 2 0
BITMAP
03E0
0C38
1818
301C
701C
601C
E01C
E01C
E038
E038
E070
6060
70C0
1F00
ENDCHAR

STARTCHAR P
ENCODING 80
SWIDTH 741 0
DWIDTH 14 0
BBX 15 14 0 0
BITMAP
1FF0
071C
070E
070E
0E0E
0E1C
0E38
1FE0
1C00
1C00
3800
3800
3800
FE00
ENDCHAR

STARTCHAR Q
ENCODING 81
SWIDTH 833 0
DWIDTH 16 0
BBX 14 18 2 -4
BITMAP
03E0
0C38
1818
301C
701C
601C
E01C
E01C
E038
EF38
F9F0
71E0
71C0
1F80
0180
01D0
01D0
00E0
ENDCHAR

STARTCHAR R
ENCODING 82
SWIDTH 796 0
DWIDTH 15 0
BBX 15 14 0 0
BITMAP
1FF0
071C
070E
070E
0E1C
0E78
0FE0
1C70
1C38
1C38
3838
3870
3874
FE38
ENDCHAR

STARTCHAR S
ENCODING 83
SWIDTH 685 0
DWIDTH 13 0
BBX 12 14 1 0
BITMAP
0F90
1CD0
3870
3820
3820
3E00
1F80
0FC0
03E0
40E0
40E0
E0E0
B1C0
9F80
ENDCHAR

STARTCHAR T
ENCODING 84
SWIDTH 722 0
DWIDTH 14 0
BBX 13 14 2 0
BITMAP
7FF8
4708
C718
8710
8E10
0E00
0E00
1C00
1C00
1C00
3800
3800
3800
FE00
ENDCHAR

STARTCHAR U
ENCODING 85
SWIDTH 833 0
DWIDTH 15 0
BBX 15 14 2 0
BITMAP
FE3E
3808
3808
3808
7010
7010
7010
7020
E020
E020
E040
E040
7080
3F00
ENDCHAR

STARTCHAR V
ENCODING 86
SWIDTH 741 0
DWIDTH 13 0
BBX 14 14 2 0
BITMAP
FEFC
3830
3820
3840
3840
3880
3900
3900
3A00
3C00
3800
3800
3000
2000
ENDCHAR

STARTCHAR W
ENCODING 87
SWIDTH 944 0
DWIDTH 18 0
BBX 19 14 2 0
BITMAP
FCF9E0
7070C0
70F080
70F100
717200
727200
727400
747400
787800
787800
707000
707000
606000
404000
ENDCHAR

STARTCHAR X
ENCODING 88
SWIDTH 741 0
DWIDTH 13 0
BBX 15 14 0 0
BITMAP
3F7E
0E18
0E10
0720
0740
0380
0380
0380
05C0
09C0
11C0
20E0
60E0
F9F8
ENDCHAR

STARTCHAR Y
ENCODING 89
SWIDTH 704 0
DWIDTH 13 0
BBX 14 14 2 0
BITMAP
FEFC
3830
3820
1C40
1C80
1C80
0F00
0E00
0E00
0E00
1C00
1C00
1C00
7F00
ENDCHAR

STARTCHAR Z
ENCODING 90
SWIDTH 704 0
DWIDTH 13 0
BBX 14 14 0 0
BITMAP
0FFC
0C38
1870
10E0
10E0
01C0
0380
0700
0E00
1E10
1C10
3830
7060
FFE0
ENDCHAR

STARTCHAR bracketleft
ENCODING 91
SWIDTH 407 0
DWIDTH 8 0
BBX 9 18 0 -4
BITMAP
0F80
0E00
0E00
1C00
1C00
1C00
1C00
3800
3800
3800
3800
7000
7000
7000
7000
E000
E000
F800
ENDCHAR

STARTCHAR backslash
ENCODING 92
SWIDTH 606 0
DWIDTH 12 0
BBX 8 14 2 0
BITMAP
C0
C0
60
60
30
30
18
0C
0C
06
06
03
03
01
ENDCHAR

STARTCHAR bracketright
ENCODING 93
SWIDTH 407 0
DWIDTH 8 0
BBX 9 18 -1 -4
BITMAP
0F80
0380
0380
0700
0700
0700
0700
0E00
0E00
0E00
0E00
1C00
1C00
1C00
1C00
3800
3800
F800
ENDCHAR

STARTCHAR asciicircum
ENCODING 94
SWIDTH 606 0
DWIDTH 12 0
BBX 7 7 3 7
BITMAP
10
18
38
3C
6C
6C
C6
ENDCHAR

STARTCHAR underscore
ENCODING 95
SWIDTH 500 0
DWIDTH 10 0
BBX 10 1 0 -2
BITMAP
FFC0
ENDCHAR

STARTCHAR quoteleft
ENCODING 96
SWIDTH 259 0
DWIDTH 5 0
BBX 4 6 2 8
BITMAP
30
40
C0
E0
E0
40
ENDCHAR

STARTCHAR a
ENCODING 97
SWIDTH 667 0
DWIDTH 13 0
BBX 12 9 1 0
BITMAP
1EE0
39E0
71C0
71C0
E1C0
E380
E390
E7A0
7DC0
ENDCHAR

STARTCHAR b
ENCODING 98
SWIDTH 611 0
DWIDTH 12 0
BBX 10 14 2 0
BITMAP
7800
3800
3800
3800
7000
7780
79C0
71C0
E1C0
E1C0
E380
E380
6700
3C00
ENDCHAR

STARTCHAR c
ENCODING 99
SWIDTH 537 0
DWIDTH 10 0
BBX 9 9 1 0
BITMAP
0F00
3980
7380
7100
E000
E000
E100
E200
7C00
ENDCHAR

STARTCHAR d
ENCODING 100
SWIDTH 667 0
DWIDTH 13 0
BBX 12 14 1 0
BITMAP
01F0
0070
0070
00E0
00E0
0EE0
39E0
71C0
71C0
E1C0
E380
E390
67A0
39C0
ENDCHAR

STARTCHAR e
ENCODING 101
SWIDTH 519 0
DWIDTH 10 0
BBX 9 9 1 0
BITMAP
0F00
3B80
7180
7380
FF00
E000
E100
E200
7C00
ENDCHAR

STARTCHAR f
ENCODING 102
SWIDTH 389 0
DWIDTH 7 0
BBX 10 17 0 -3
BITMAP
0380
06C0
0E80
0C00
1C00
7F00
1C00
1C00
3800
3800
3000
7000
7000
6000
E000
E000
C000
ENDCHAR

STARTCHAR g
ENCODING 103
SWIDTH 611 0
DWIDTH 12 0
BBX 13 14 0 -4
BITMAP
0038
07D8
0EE0
1CE0
1CE0
0DC0
3F00
6000
7E00
3F80
61C0
C1C0
C380
7F00
ENDCHAR

STARTCHAR h
ENCODING 104
SWIDTH 685 0
DWIDTH 13 0
BBX 12 14 1 0
BITMAP
7C00
1C00
1C00
1C00
3800
3B80
3DC0
39C0
71C0
71C0
7380
E390
E3A0
E1C0
ENDCHAR

STARTCHAR i
ENCODING 105
SWIDTH 389 0
DWIDTH 7 0
BBX 6 14 1 0
BITMAP
1C
1C
1C
00
00
F8
38
38
70
70
70
E4
E8
70
ENDCHAR

STARTCHAR j
ENCODING 106
SWIDTH 370 0
DWIDTH 7 0
BBX 10 18 -2 -4
BITMAP
01C0
01C0
01C0
0000
0000
0F80
0380
0380
0700
0700
0700
0700
0E00
0E00
4C00
EC00
D800
7000
ENDCHAR

STARTCHAR k
ENCODING 107
SWIDTH 648 0
DWIDTH 12 0
BBX 11 14 1 0
BITMAP
7C00
1C00
1C00
1C00
3800
39C0
3AE0
74E0
79C0
7700
7300
E320
E3C0
E180
ENDCHAR

STARTCHAR l
ENCODING 108
SWIDTH 389 0
DWIDTH 7 0
BBX 6 14 1 0
BITMAP
7C
1C
1C
1C
38
38
38
70
70
70
E0
E4
E8
70
ENDCHAR

STARTCHAR m
ENCODING 109
SWIDTH 944 0
DWIDTH 19 0
BBX 18 9 1 0
BITMAP
FBBE00
3CE700
38E700
71C700
71C700
71CE00
E38E40
E38E80
E38700
ENDCHAR

STARTCHAR n
ENCODING 110
SWIDTH 685 0
DWIDTH 13 0
BBX 12 9 1 0
BITMAP
7780
39C0
39C0
71C0
71C0
7380
E390
E3A0
E1C0
ENDCHAR

STARTCHAR o
ENCODING 111
SWIDTH 574 0
DWIDTH 11 0
BBX 10 9 1 0
BITMAP
0F80
39C0
71C0
71C0
E1C0
E380
E380
E700
7C00
ENDCHAR

STARTCHAR p
ENCODING 112
SWIDTH 648 0
DWIDTH 12 0
BBX 12 13 0 -4
BITMAP
1DE0
0E70
1C70
1C70
1C70
38E0
38E0
39C0
3F00
7000
7000
7000
F800
ENDCHAR

STARTCHAR q
ENCODING 113
SWIDTH 630 0
DWIDTH 12 0
BBX 11 13 1 -4
BITMAP
0EE0
39E0
71C0
71C0
E1C0
E380
E380
E780
7B80
0700
0700
0700
0F80
ENDCHAR

STARTCHAR r
ENCODING 114
SWIDTH 519 0
DWIDTH 9 0
BBX 9 9 1 0
BITMAP
F700
3980
3980
7000
7000
7000
E000
E000
E000
ENDCHAR

STARTCHAR s
ENCODING 115
SWIDTH 481 0
DWIDTH 9 0
BBX 8 9 1 0
BITMAP
3E
73
73
78
3C
1E
CE
CE
7C
ENDCHAR

STARTCHAR t
ENCODING 116
SWIDTH 407 0
DWIDTH 8 0
BBX 6 13 2 0
BITMAP
08
18
38
38
FC
70
70
70
E0
E0
E4
E8
70
ENDCHAR

STARTCHAR u
ENCODING 117
SWIDTH 685 0
DWIDTH 13 0
BBX 12 9 1 0
BITMAP
F8E0
38E0
38E0
39C0
71C0
71C0
7390
73A0
3DC0
ENDCHAR

STARTCHAR v
ENCODING 118
SWIDTH 556 0
DWIDTH 11 0
BBX 9 9 2 0
BITMAP
F900
3980
7080
7080
7080
E100
E100
E200
7C00
ENDCHAR

STARTCHAR w
ENCODING 119
SWIDTH 833 0
DWIDTH 16 0
BBX 15 9 1 0
BITMAP
78E4
38E6
70E2
71C2
71C2
E1C4
E384
E488
7870
ENDCHAR

STARTCHAR x
ENCODING 120
SWIDTH 574 0
DWIDTH 11 0
BBX 11 9 0 0
BITMAP
18C0
2D60
4F40
0E00
0600
0F00
4B20
D340
6180
ENDCHAR

STARTCHAR y
ENCODING 121
SWIDTH 519 0
DWIDTH 10 0
BBX 11 13 -1 -4
BITMAP
1840
2C60
0E60
0E40
0640
07C0
0380
0380
0300
0200
4400
E800
7000
ENDCHAR

STARTCHAR z
ENCODING 122
SWIDTH 519 0
DWIDTH 10 0
BBX 10 9 0 0
BITMAP
1C40
3FC0
4380
0300
0C00
3000
7080
FF00
8E00
ENDCHAR

STARTCHAR braceleft
ENCODING 123
SWIDTH 407 0
DWIDTH 8 0
BBX 8 18 1 -4
BITMAP
03
04
0C
1C
1C
1C
18
10
60
20
30
70
70
E0
E0
C0
40
20
ENDCHAR

STARTCHAR bar
ENCODING 124
SWIDTH 606 0
DWIDTH 12 0
BBX 2 18 5 -4
BITMAP
C0
C0
C0
C0
C0
C0
C0
C0
C0
C0
C0
C0
C0
C0
C0
C0
C0
C0
ENDCHAR

STARTCHAR braceright
ENCODING 125
SWIDTH 407 0
DWIDTH 8 0
BBX 8 18 -1 -4
BITMAP
04
02
03
07
07
0E
0E
0C
04
06
08
18
38
38
38
30
20
C0
ENDCHAR

STARTCHAR asciitilde
ENCODING 126
SWIDTH 606 0
DWIDTH 12 0
BBX 10 4 2 4
BITMAP
7040
FC40
9F80
8700
ENDCHAR

STARTCHAR space
ENCODING 160
SWIDTH 287 0
DWIDTH 7 0
BBX 0 0 0 0
BITMAP
ENDCHAR

STARTCHAR Aogonek
ENCODING 161
SWIDTH 741 0
DWIDTH 14 0
BBX 15 16 -1 -2
BITMAP
0030
0070
0070
00F0
0170
0170
0270
0470
0470
0FF0
1070
1070
2070
F9FC
0030
001E
ENDCHAR

STARTCHAR breve
ENCODING 162
SWIDTH 333 0
DWIDTH 6 0
BBX 6 3 1 10
BITMAP
84
FC
78
ENDCHAR

STARTCHAR Lslash
ENCODING 163
SWIDTH 704 0
DWIDTH 13 0
BBX 13 14 0 0
BITMAP
1FC0
0700
0700
0700
0E40
0E80
0F00
1C00
7C00
9C08
3808
3818
3830
FFF0
ENDCHAR

STARTCHAR currency
ENCODING 164
SWIDTH 574 0
DWIDTH 11 0
BBX 9 9 1 2
BITMAP
DD80
F780
6300
C180
8080
C180
6300
F780
DD80
ENDCHAR

STARTCHAR Lcaron
ENCODING 165
SWIDTH 704 0
DWIDTH 13 0
BBX 13 14 0 0
BITMAP
1FD8
0718
0718
0710
0E20
0E00
0E00
1C00
1C00
1C08
3808
3818
3830
FFF0
ENDCHAR

STARTCHAR Sacute
ENCODING 166
SWIDTH 685 0
DWIDTH 13 0
BBX 12 17 1 0
BITMAP
01C0
0700
0000
0F90
1CD0
3870
3820
3820
3E00
1F80
0FC0
03E0
40E0
40E0
E0E0
B1C0
9F80
ENDCHAR

STARTCHAR section
ENCODING 167
SWIDTH 500 0
DWIDTH 10 0
BBX 9 18 1 -4
BITMAP
0700
0980
1980
1980
1C00
3E00
2E00
6700
6700
7300
7300
3A00
3E00
1C00
CC00
CC00
C800
7000
ENDCHAR

STARTCHAR dieresis
ENCODING 168
SWIDTH 333 0
DWIDTH 6 0
BBX 6 2 1 10
BITMAP
CC
CC
ENDCHAR

STARTCHAR Scaron
ENCODING 169
SWIDTH 685 0
DWIDTH 13 0
BBX 12 18 1 0
BITMAP
0420
03C0
0180
0000
0F90
1CD0
3870
3820
3820
3E00
1F80
0FC0
03E0
40E0
40E0
E0E0
B1C0
9F80
ENDCHAR

STARTCHAR Scommaaccent
ENCODING 170
SWIDTH 685 0
DWIDTH 13 0
BBX 12 18 1 -4
BITMAP
0F90
1CD0
3870
3820
3820
3E00
1F80
0FC0
03E0
40E0
40E0
E0E0
B1C0
9F80
0000
0C00
0C00
1800
ENDCHAR

STARTCHAR Tcaron
ENCODING 171
SWIDTH 722 0
DWIDTH 14 0
BBX 13 18 2 0
BITMAP
0840
0780
0300
0000
7FF8
4708
C718
8710
8E10
0E00
0E00
1C00
1C00
1C00
3800
3800
3800
FE00
ENDCHAR

STARTCHAR Zacute
ENCODING 172
SWIDTH 704 0
DWIDTH 13 0
BBX 14 17 0 0
BITMAP
0070
01C0
0000
0FFC
0C38
1870
10E0
10E0
01C0
0380
0700
0E00
1E10
1C10
3830
7060
FFE0
ENDCHAR

STARTCHAR hyphen
ENCODING 173
SWIDTH 333 0
DWIDTH 6 0
BBX 5 2 1 3
BITMAP
F8
F8
ENDCHAR

STARTCHAR Zcaron
ENCODING 174
SWIDTH 704 0
DWIDTH 13 0
BBX 14 18 0 0
BITMAP
0210
01E0
00C0
0000
0FFC
0C38
1870
10E0
10E0
01C0
0380
0700
0E00
1E10
1C10
3830
7060
FFE0
ENDCHAR

STARTCHAR Zdotaccent
ENCODING 175
SWIDTH 704 0
DWIDTH 13 0
BBX 14 17 0 0
BITMAP
00C0
00C0
0000
0FFC
0C38
1870
10E0
10E0
01C0
0380
0700
0E00
1E10
1C10
3830
7060
FFE0
ENDCHAR

STARTCHAR degree
ENCODING 176
SWIDTH 400 0
DWIDTH 8 0
BBX 6 6 1 8
BITMAP
78
CC
84
84
CC
78
ENDCHAR

STARTCHAR aogonek
ENCODING 177
SWIDTH 667 0
DWIDTH 13 0
BBX 12 11 1 -2
BITMAP
1EE0
39E0
71C0
71C0
E1C0
E380
E390
E7A0
7DC0
0180
00F0
ENDCHAR

STARTCHAR ogonek
ENCODING 178
SWIDTH 333 0
DWIDTH 6 0
BBX 5 2 1 -2
BITMAP
C0
78
ENDCHAR

STARTCHAR lslash
ENCODING 179
SWIDTH 389 0
DWIDTH 7 0
BBX 8 14 0 0
BITMAP
3E
0E
0E
0E
1D
1E
1C
38
78
B8
70
72
74
38
ENDCHAR

STARTCHAR acute
ENCODING 180
SWIDTH 333 0
DWIDTH 6 0
BBX 5 2 1 10
BITMAP
38
E0
ENDCHAR

STARTCHAR lcaron
ENCODING 181
SWIDTH 449 0
DWIDTH 7 0
BBX 9 14 1 0
BITMAP
7D80
1D80
1D80
1D00
3A00
3800
3800
7000
7000
7000
E000
E400
E800
7000
ENDCHAR

STARTCHAR sacute
ENCODING 182
SWIDTH 481 0
DWIDTH 9 0
BBX 8 12 1 0
BITMAP
0E
38
00
3E
73
73
78
3C
1E
CE
CE
7C
ENDCHAR

STARTCHAR caron
ENCODING 183
SWIDTH 333 0
DWIDTH 6 0
BBX 6 3 1 10
BITMAP
84
78
30
ENDCHAR

STARTCHAR commaaccent
ENCODING 184
SWIDTH 333 0
DWIDTH 6 0
BBX 3 3 1 -4
BITMAP
60
60
C0
ENDCHAR

STARTCHAR scaron
ENCODING 185
SWIDTH 481 0
DWIDTH 9 0
BBX 8 13 1 0
BITMAP
21
1E
0C
00
3E
73
73
78
3C
1E
CE
CE
7C
ENDCHAR

STARTCHAR scommaaccent
ENCODING 186
SWIDTH 481 0
DWIDTH 9 0
BBX 8 13 1 -4
BITMAP
3E
73
73
78
3C
1E
CE
CE
7C
00
30
30
60
ENDCHAR

STARTCHAR tcaron
ENCODING 187
SWIDTH 506 0
DWIDTH 8 0
BBX 8 14 2 0
BITMAP
03
0B
1B
3A
3C
FC
70
70
70
E0
E0
E4
E8
70
ENDCHAR

STARTCHAR zacute
ENCODING 188
SWIDTH 519 0
DWIDTH 10 0
BBX 10 12 0 0
BITMAP
0380
0E00
0000
1C40
3FC0
4380
0300
0C00
3000
7080
FF00
8E00
ENDCHAR

STARTCHAR hungarumlaut
ENCODING 189
SWIDTH 333 0
DWIDTH 6 0
BBX 10 2 0 10
BITMAP
39C0
E700
ENDCHAR

STARTCHAR zcaron
ENCODING 190
SWIDTH 519 0
DWIDTH 10 0
BBX 10 13 0 0
BITMAP
1080
0F00
0600
0000
1C40
3FC0
4380
0300
0C00
3000
7080
FF00
8E00
ENDCHAR

STARTCHAR zdotaccent
ENCODING 191
SWIDTH 519 0
DWIDTH 10 0
BBX 10 12 0 0
BITMAP
0600
0600
0000
1C40
3FC0
4380
0300
0C00
3000
7080
FF00
8E00
ENDCHAR

STARTCHAR Racute
ENCODING 192
SWIDTH 796 0
DWIDTH 15 0
BBX 15 17 0 0
BITMAP
0070
01C0
0000
1FF0
071C
070E
070E
0E1C
0E78
0FE0
1C70
1C38
1C38
3838
3870
3874
FE38
ENDCHAR

STARTCHAR Aacute
ENCODING 193
SWIDTH 741 0
DWIDTH 14 0
BBX 14 17 -1 0
BITMAP
001C
0070
0000
0030
0070
0070
00F0
0170
0170
0270
0470
0470
0FF0
1070
1070
2070
F9FC
ENDCHAR

STARTCHAR Acircumflex
ENCODING 194
SWIDTH 741 0
DWIDTH 14 0
BBX 14 18 -1 0
BITMAP
0030
0078
0084
0000
0030
0070
0070
00F0
0170
0170
0270
0470
0470
0FF0
1070
1070
2070
F9FC
ENDCHAR

STARTCHAR Abreve
ENCODING 195
SWIDTH 741 0
DWIDTH 14 0
BBX 14 18 -1 0
BITMAP
0084
00FC
0078
0000
0030
0070
0070
00F0
0170
0170
0270
0470
0470
0FF0
1070
1070
2070
F9FC
ENDCHAR

STARTCHAR Adieresis
ENCODING 196
SWIDTH 741 0
DWIDTH 14 0
BBX 14 17 -1 0
BITMAP
00CC
00CC
0000
0030
0070
0070
00F0
0170
0170
0270
0470
0470
0FF0
1070
1070
2070
F9FC
ENDCHAR

STARTCHAR Lacute
ENCODING 197
SWIDTH 704 0
DWIDTH 13 0
BBX 13 17 0 0
BITMAP
00E0
0380
0000
1FC0
0700
0700
0700
0E00
0E00
0E00
1C00
1C00
1C08
3808
3818
3830
FFF0
ENDCHAR

STARTCHAR Cacute
ENCODING 198
SWIDTH 759 0
DWIDTH 14 0
BBX 13 17 2 0
BITMAP
01C0
0700
0000
07C8
1C68
3838
7010
7010
E010
E000
E000
E000
E000
E010
7020
78C0
1F00
ENDCHAR

STARTCHAR Ccedilla
ENCODING 199
SWIDTH 759 0
DWIDTH 14 0
BBX 13 17 2 -3
BITMAP
07C8
1C68
3838
7010
7010
E010
E000
E000
E000
E000
E010
7020
78C0
1F00
0C00
0600
1C00
ENDCHAR

STARTCHAR Ccaron
ENCODING 200
SWIDTH 759 0
DWIDTH 14 0
BBX 13 18 2 0
BITMAP
0420
03C0
0180
0000
07C8
1C68
3838
7010
7010
E010
E000
E000
E000
E000
E010
7020
78C0
1F00
ENDCHAR

STARTCHAR Eacute
ENCODING 201
SWIDTH 741 0
DWIDTH 14 0
BBX 15 17 0 0
BITMAP
0038
00E0
0000
1FFE
0706
0706
0704
0E24
0E60
0FE0
1C40
1C40
1C48
3808
3818
3830
FFF0
ENDCHAR

STARTCHAR Eogonek
ENCODING 202
SWIDTH 741 0
DWIDTH 14 0
BBX 15 16 0 -2
BITMAP
1FFE
0706
0706
0704
0E24
0E60
0FE0
1C40
1C40
1C48
3808
3818
3830
FFF0
0060
003C
ENDCHAR

STARTCHAR Edieresis
ENCODING 203
SWIDTH 741 0
DWIDTH 14 0
BBX 15 17 0 0
BITMAP
0198
0198
0000
1FFE
0706
0706
0704
0E24
0E60
0FE0
1C40
1C40
1C48
3808
3818
3830
FFF0
ENDCHAR

STARTCHAR Ecaron
ENCODING 204
SWIDTH 741 0
DWIDTH 14 0
BBX 15 18 0 0
BITMAP
0108
00F0
0060
0000
1FFE
0706
0706
0704
0E24
0E60
0FE0
1C40
1C40
1C48
3808
3818
3830
FFF0
ENDCHAR

STARTCHAR Iacute
ENCODING 205
SWIDTH 444 0
DWIDTH 9 0
BBX 10 17 0 0
BITMAP
01C0
0700
0000
1FC0
0700
0700
0700
0E00
0E00
0E00
1C00
1C00
1C00
3800
3800
3800
FE00
ENDCHAR

STARTCHAR Icircumflex
ENCODING 206
SWIDTH 444 0
DWIDTH 9 0
BBX 10 18 0 0
BITMAP
0300
0780
0840
0000
1FC0
0700
0700
0700
0E00
0E00
0E00
1C00
1C00
1C00
3800
3800
3800
FE00
ENDCHAR

STARTCHAR Dcaron
ENCODING 207
SWIDTH 833 0
DWIDTH 16 0
BBX 15 18 1 0
BITMAP
0210
01E0
00C0
0000
1FF0
0E1C
0E0C
0E0E
1C0E
1C0E
1C0E
380E
381C
381C
7018
7030
70E0
FF80
ENDCHAR

STARTCHAR Dcroat
ENCODING 208
SWIDTH 833 0
DWIDTH 16 0
BBX 15 14 1 0
BITMAP
1FF0
0E1C
0E0C
0E0E
1C0E
1C0E
7F8E
380E
381C
381C
7018
7030
70E0
FF80
ENDCHAR

STARTCHAR Nacute
ENCODING 209
SWIDTH 852 0
DWIDTH 16 0
BBX 17 17 0 0
BITMAP
001C00
007000
000000
1F0F80
070200
078200
078200
09C400
09C400
08E400
10E800
107800
107800
203800
203000
201000
F81000
ENDCHAR

STARTCHAR Ncaron
ENCODING 210
SWIDTH 852 0
DWIDTH 16 0
BBX 17 18 0 0
BITMAP
008400
007800
003000
000000
1F0F80
070200
078200
078200
09C400
09C400
08E400
10E800
107800
107800
203800
203000
201000
F81000
ENDCHAR

STARTCHAR Oacute
ENCODING 211
SWIDTH 833 0
DWIDTH 16 0
BBX 14 17 2 0
BITMAP
0070
01C0
0000
03E0
0C38
1818
301C
701C
601C
E01C
E01C
E038
E038
E070
6060
70C0
1F00
ENDCHAR

STARTCHAR Ocircumflex
ENCODING 212
SWIDTH 833 0
DWIDTH 16 0
BBX 14 18 2 0
BITMAP
00C0
01E0
0210
0000
03E0
0C38
1818
301C
701C
601C
E01C
E01C
E038
E038
E070
6060
70C0
1F00
ENDCHAR

STARTCHAR Ohungarumlaut
ENCODING 213
SWIDTH 833 0
DWIDTH 16 0
BBX 15 17 2 0
BITMAP
01CE
0738
0000
03E0
0C38
1818
301C
701C
601C
E01C
E01C
E038
E038
E070
6060
70C0
1F00
ENDCHAR

STARTCHAR Odieresis
ENCODING 214
SWIDTH 833 0
DWIDTH 16 0
BBX 14 17 2 0
BITMAP
0330
0330
0000
03E0
0C38
1818
301C
701C
601C
E01C
E01C
E038
E038
E070
6060
70C0
1F00
ENDCHAR

STARTCHAR multiply
ENCODING 215
SWIDTH 650 0
DWIDTH 12 0
BBX 10 9 2 2
BITMAP
E1C0
7380
3F00
1E00
0C00
1E00
3F00
7380
E1C0
ENDCHAR

STARTCHAR Rcaron
ENCODING 216
SWIDTH 796 0
DWIDTH 15 0
BBX 15 18 0 0
BITMAP
0210
01E0
00C0
0000
1FF0
071C
070E
070E
0E1C
0E78
0FE0
1C70
1C38
1C38
3838
3870
3874
FE38
ENDCHAR

STARTCHAR Uring
ENCODING 217
SWIDTH 833 0
DWIDTH 15 0
BBX 15 18 2 0
BITMAP
00C0
0120
00C0
0000
FE3E
3808
3808
3808
7010
7010
7010
7020
E020
E020
E040
E040
7080
3F00
ENDCHAR

STARTCHAR Uacute
ENCODING 218
SWIDTH 833 0
DWIDTH 15 0
BBX 15 17 2 0
BITMAP
00E0
0380
0000
FE3E
3808
3808
3808
7010
7010
7010
7020
E020
E020
E040
E040
7080
3F00
ENDCHAR

STARTCHAR Uhungarumlaut
ENCODING 219
SWIDTH 833 0
DWIDTH 15 0
BBX 15 17 2 0
BITMAP
039C
0E70
0000
FE3E
3808
3808
3808
7010
7010
7010
7020
E020
E020
E040
E040
7080
3F00
ENDCHAR

STARTCHAR Udieresis
ENCODING 220
SWIDTH 833 0
DWIDTH 15 0
BBX 15 17 2 0
BITMAP
0330
0330
0000
FE3E
3808
3808
3808
7010
7010
7010
7020
E020
E020
E040
E040
7080
3F00
ENDCHAR

STARTCHAR Yacute
ENCODING 221
SWIDTH 704 0
DWIDTH 13 0
BBX 14 17 2 0
BITMAP
00E0
0380
0000
FEFC
3830
3820
1C40
1C80
1C80
0F00
0E00
0E00
0E00
1C00
1C00
1C00
7F00
ENDCHAR

STARTCHAR Tcommaaccent
ENCODING 222
SWIDTH 722 0
DWIDTH 14 0
BBX 13 18 2 -4
BITMAP
7FF8
4708
C718
8710
8E10
0E00
0E00
1C00
1C00
1C00
3800
3800
3800
FE00
0000
3000
3000
6000
ENDCHAR

STARTCHAR germandbls
ENCODING 223
SWIDTH 574 0
DWIDTH 11 0
BBX 11 18 0 -4
BITMAP
03C0
0660
0C60
0C60
1CE0
18C0
3B00
3180
30C0
30C0
70C0
61C0
61C0
6B80
E700
C000
C000
C000
ENDCHAR

STARTCHAR racute
ENCODING 224
SWIDTH 519 0
DWIDTH 9 0
BBX 9 12 1 0
BITMAP
0700
1C00
0000
F700
3980
3980
7000
7000
7000
E000
E000
E000
ENDCHAR

STARTCHAR aacute
ENCODING 225
SWIDTH 667 0
DWIDTH 13 0
BBX 12 12 1 0
BITMAP
01C0
0700
0000
1EE0
39E0
71C0
71C0
E1C0
E380
E390
E7A0
7DC0
ENDCHAR

STARTCHAR acircumflex
ENCODING 226
SWIDTH 667 0
DWIDTH 13 0
BBX 12 13 1 0
BITMAP
0300
0780
0840
0000
1EE0
39E0
71C0
71C0
E1C0
E380
E390
E7A0
7DC0
ENDCHAR

STARTCHAR abreve
ENCODING 227
SWIDTH 667 0
DWIDTH 13 0
BBX 12 13 1 0
BITMAP
0420
07E0
03C0
0000
1EE0
39E0
71C0
71C0
E1C0
E380
E390
E7A0
7DC0
ENDCHAR

STARTCHAR adieresis
ENCODING 228
SWIDTH 667 0
DWIDTH 13 0
BBX 12 12 1 0
BITMAP
0660
0660
0000
1EE0
39E0
71C0
71C0
E1C0
E380
E390
E7A0
7DC0
ENDCHAR

STARTCHAR lacute
ENCODING 229
SWIDTH 389 0
DWIDTH 7 0
BBX 7 17 1 0
BITMAP
0E
38
00
7C
1C
1C
1C
38
38
38
70
70
70
E0
E4
E8
70
ENDCHAR

STARTCHAR cacute
ENCODING 230
SWIDTH 537 0
DWIDTH 10 0
BBX 9 12 1 0
BITMAP
0380
0E00
0000
0F00
3980
7380
7100
E000
E000
E100
E200
7C00
ENDCHAR

STARTCHAR ccedilla
ENCODING 231
SWIDTH 537 0
DWIDTH 10 0
BBX 9 12 1 -3
BITMAP
0F00
3980
7380
7100
E000
E000
E100
E200
7C00
1800
0C00
3800
ENDCHAR

STARTCHAR ccaron
ENCODING 232
SWIDTH 537 0
DWIDTH 10 0
BBX 9 13 1 0
BITMAP
1080
0F00
0600
0000
0F00
3980
7380
7100
E000
E000
E100
E200
7C00
ENDCHAR

STARTCHAR eacute
ENCODING 233
SWIDTH 519 0
DWIDTH 10 0
BBX 9 12 1 0
BITMAP
0380
0E00
0000
0F00
3B80
7180
7380
FF00
E000
E100
E200
7C00
ENDCHAR

STARTCHAR eogonek
ENCODING 234
SWIDTH 519 0
DWIDTH 10 0
BBX 9 11 1 -2
BITMAP
0F00
3B80
7180
7380
FF00
E000
E100
E200
7C00
1800
0F00
ENDCHAR

STARTCHAR edieresis
ENCODING 235
SWIDTH 519 0
DWIDTH 10 0
BBX 9 12 1 0
BITMAP
1980
1980
0000
0F00
3B80
7180
7380
FF00
E000
E100
E200
7C00
ENDCHAR

STARTCHAR ecaron
ENCODING 236
SWIDTH 519 0
DWIDTH 10 0
BBX 9 13 1 0
BITMAP
1080
0F00
0600
0000
0F00
3B80
7180
7380
FF00
E000
E100
E200
7C00
ENDCHAR

STARTCHAR iacute
ENCODING 237
SWIDTH 389 0
DWIDTH 7 0
BBX 6 12 1 0
BITMAP
1C
70
00
F8
38
38
70
70
70
E4
E8
70
ENDCHAR

STARTCHAR icircumflex
ENCODING 238
SWIDTH 389 0
DWIDTH 7 0
BBX 7 13 1 0
BITMAP
18
3C
42
00
F8
38
38
70
70
70
E4
E8
70
ENDCHAR

STARTCHAR dcaron
ENCODING 239
SWIDTH 730 0
DWIDTH 13 0
BBX 15 14 1 0
BITMAP
01F6
0076
0076
00E4
00E8
0EE0
39E0
71C0
71C0
E1C0
E380
E390
67A0
39C0
ENDCHAR

STARTCHAR dcroat
ENCODING 240
SWIDTH 667 0
DWIDTH 13 0
BBX 13 14 1 0
BITMAP
01F0
0070
03F8
00E0
00E0
0EE0
39E0
71C0
71C0
E1C0
E380
E390
67A0
39C0
ENDCHAR

STARTCHAR nacute
ENCODING 241
SWIDTH 685 0
DWIDTH 13 0
BBX 12 12 1 0
BITMAP
01C0
0700
0000
7780
39C0
39C0
71C0
71C0
7380
E390
E3A0
E1C0
ENDCHAR

STARTCHAR ncaron
ENCODING 242
SWIDTH 685 0
DWIDTH 13 0
BBX 12 13 1 0
BITMAP
1080
0F00
0600
0000
7780
39C0
39C0
71C0
71C0
7380
E390
E3A0
E1C0
ENDCHAR

STARTCHAR oacute
ENCODING 243
SWIDTH 574 0
DWIDTH 11 0
BBX 10 12 1 0
BITMAP
01C0
0700
0000
0F80
39C0
71C0
71C0
E1C0
E380
E380
E700
7C00
ENDCHAR

STARTCHAR ocircumflex
ENCODING 244
SWIDTH 574 0
DWIDTH 11 0
BBX 10 13 1 0
BITMAP
0300
0780
0840
0000
0F80
39C0
71C0
71C0
E1C0
E380
E380
E700
7C00
ENDCHAR

STARTCHAR ohungarumlaut
ENCODING 245
SWIDTH 574 0
DWIDTH 11 0
BBX 12 12 1 0
BITMAP
0E70
39C0
0000
0F80
39C0
71C0
71C0
E1C0
E380
E380
E700
7C00
ENDCHAR

STARTCHAR odieresis
ENCODING 246
SWIDTH 574 0
DWIDTH 11 0
BBX 10 12 1 0
BITMAP
0CC0
0CC0
0000
0F80
39C0
71C0
71C0
E1C0
E380
E380
E700
7C00
ENDCHAR

STARTCHAR divide
ENCODING 247
SWIDTH 650 0
DWIDTH 12 0
BBX 10 10 2 1
BITMAP
0C00
0C00
0000
0000
FFC0
FFC0
0000
0000
0C00
0C00
ENDCHAR

STARTCHAR rcaron
ENCODING 248
SWIDTH 519 0
DWIDTH 9 0
BBX 9 13 1 0
BITMAP
2100
1E00
0C00
0000
F700
3980
3980
7000
7000
7000
E000
E000
E000
ENDCHAR

STARTCHAR uring
ENCODING 249
SWIDTH 685 0
DWIDTH 13 0
BBX 12 13 1 0
BITMAP
0300
0480
0300
0000
F8E0
38E0
38E0
39C0
71C0
71C0
7390
73A0
3DC0
ENDCHAR

STARTCHAR uacute
ENCODING 250
SWIDTH 685 0
DWIDTH 13 0
BBX 12 12 1 0
BITMAP
01C0
0700
0000
F8E0
38E0
38E0
39C0
71C0
71C0
7390
73A0
3DC0
ENDCHAR

STARTCHAR uhungarumlaut
ENCODING 251
SWIDTH 685 0
DWIDTH 13 0
BBX 13 12 1 0
BITMAP
0738
1CE0
0000
F8E0
38E0
38E0
39C0
71C0
71C0
7390
73A0
3DC0
ENDCHAR

STARTCHAR udieresis
ENCODING 252
SWIDTH 685 0
DWIDTH 13 0
BBX 12 12 1 0
BITMAP
0CC0
0CC0
0000
F8E0
38E0
38E0
39C0
71C0
71C0
7390
73A0
3DC0
ENDCHAR

STARTCHAR yacute
ENCODING 253
SWIDTH 519 0
DWIDTH 10 0
BBX 11 16 -1 -4
BITMAP
01C0
0700
0000
1840
2C60
0E60
0E40
0640
07C0
0380
0380
0300
0200
4400
E800
7000
ENDCHAR

STARTCHAR tcommaaccent
ENCODING 254
SWIDTH 407 0
DWIDTH 8 0
BBX 6 17 2 -4
BITMAP
08
18
38
38
FC
70
70
70
E0
E0
E4
E8
70
00
60
60
C0
ENDCHAR

STARTCHAR dotaccent
ENCODING 255
SWIDTH 333 0
DWIDTH 6 0
BBX 2 2 2 10
BITMAP
C0
C0
ENDCHAR
ENDFONT
